<svg width="100%" height="100%" style="margin: auto;" data-v-6805eed4="" version="1.0" xmlns="http://www.w3.org/2000/svg" xmlns:xlink="http://www.w3.org/1999/xlink" viewBox="0 0 180.000000 180.000000" preserveAspectRatio="xMidYMid meet" color-interpolation-filters="sRGB"><g data-v-6805eed4="" class="iconmbgsvg" transform="translate(14,14)"><g fill="#e9cdb3" hollow-target="textFill" mask="url(#6e26e183-e9c5-4f2e-ba82-89097dee0d3e)"><g><g><rect fill="#e9cdb3" fill-opacity="0" stroke-width="2" x="0" y="0" width="150" height="150" class="image-rect"></rect><svg filter="url(#colors4222652529)" x="0" y="0" width="150" height="150" filtersec="colorsf6755994355" class="image-svg-svg primary" style="overflow: visible;"><svg fill="#000000" xmlns="http://www.w3.org/2000/svg" xmlns:xlink="http://www.w3.org/1999/xlink" version="1.1" x="0px" y="0px" viewBox="5.4127607345581055 5.413749694824219 89.17325592041016 89.17325592041016" enable-background="new 0 0 100 100" xml:space="preserve"><path fill="#000000" d="M49.29,5.704c0.391-0.387,1.029-0.387,1.42,0l4.74,4.702c0.391,0.387,1.111,0.501,1.603,0.254l5.961-3.007  c0.491-0.248,1.099-0.05,1.351,0.439l3.054,5.936c0.252,0.489,0.902,0.82,1.446,0.737l6.598-1.018  c0.544-0.083,1.061,0.292,1.148,0.834l1.071,6.59c0.088,0.542,0.604,1.059,1.147,1.147l6.59,1.071  c0.543,0.088,0.919,0.605,0.835,1.149l-1.019,6.598c-0.084,0.543,0.248,1.194,0.737,1.446l5.936,3.055  c0.489,0.251,0.687,0.859,0.439,1.351l-3.007,5.96c-0.247,0.491-0.134,1.212,0.254,1.603l4.701,4.74c0.388,0.391,0.388,1.029,0,1.42  l-4.701,4.74c-0.388,0.391-0.501,1.111-0.254,1.603l3.007,5.961c0.247,0.491,0.05,1.099-0.439,1.351l-5.936,3.054  c-0.489,0.252-0.821,0.902-0.737,1.446l1.019,6.598c0.084,0.544-0.292,1.061-0.835,1.148l-6.59,1.071  c-0.543,0.088-1.06,0.604-1.147,1.147l-1.071,6.59c-0.088,0.543-0.604,0.919-1.148,0.835l-6.598-1.019  c-0.544-0.084-1.194,0.248-1.446,0.737l-3.055,5.936c-0.251,0.489-0.858,0.688-1.35,0.439l-5.961-3.007  c-0.491-0.247-1.212-0.134-1.603,0.254l-4.74,4.701c-0.391,0.388-1.029,0.388-1.42,0l-4.74-4.701  c-0.391-0.388-1.112-0.501-1.603-0.254l-5.96,3.007c-0.491,0.248-1.099,0.05-1.351-0.439l-3.055-5.936  c-0.251-0.489-0.902-0.821-1.446-0.737l-6.598,1.019c-0.543,0.084-1.061-0.292-1.149-0.835l-1.071-6.59  c-0.088-0.543-0.605-1.06-1.147-1.147l-6.59-1.071c-0.542-0.088-0.918-0.604-0.834-1.148l1.018-6.598  c0.083-0.544-0.248-1.194-0.737-1.446l-5.936-3.054c-0.489-0.252-0.687-0.859-0.439-1.351l3.007-5.961  c0.248-0.491,0.133-1.212-0.254-1.603l-4.702-4.74c-0.387-0.391-0.387-1.029,0-1.42l4.702-4.74c0.387-0.391,0.501-1.112,0.254-1.603  l-3.007-5.96c-0.248-0.491-0.05-1.099,0.439-1.351l5.936-3.055c0.489-0.251,0.82-0.902,0.737-1.446l-1.018-6.598  c-0.083-0.543,0.292-1.061,0.834-1.149l6.59-1.071c0.542-0.088,1.059-0.605,1.147-1.147l1.071-6.59  c0.088-0.542,0.605-0.918,1.149-0.834l6.598,1.018c0.543,0.083,1.194-0.248,1.446-0.737l3.055-5.936  c0.251-0.489,0.859-0.687,1.351-0.439l5.96,3.007c0.491,0.248,1.212,0.133,1.603-0.254L49.29,5.704z"></path></svg></svg><defs><filter id="colors4222652529"><feColorMatrix type="matrix" values="0 0 0 0 0.91015625  0 0 0 0 0.80078125  0 0 0 0 0.69921875  0 0 0 1 0" class="icon-fecolormatrix"></feColorMatrix></filter><filter id="colorsf6755994355"><feColorMatrix type="matrix" values="0 0 0 0 0.99609375  0 0 0 0 0.99609375  0 0 0 0 0.99609375  0 0 0 1 0" class="icon-fecolormatrix"></feColorMatrix></filter><filter id="colorsb4256797638"><feColorMatrix type="matrix" values="0 0 0 0 0  0 0 0 0 0  0 0 0 0 0  0 0 0 1 0" class="icon-fecolormatrix"></feColorMatrix></filter></defs></g></g><g transform="translate(32.54499816894531,40.78375244140625)"><g data-gra="path-name" fill-rule="" class="tp-name" transform="translate(0,0)"><g transform="scale(1)"><g><path d="M43.94-34.76L43.94-34.76Q43.94-31.25 42.89-28.54 41.84-25.83 40.02-23.81 38.19-21.79 35.74-20.38 33.28-18.97 30.48-18.08 27.68-17.2 24.68-16.78 21.68-16.37 18.79-16.33L18.79-16.33 18.79 0.51 1.95 0.51Q1.95-7.77 1.99-15.97 2.02-24.17 2.1-32.52L2.1-32.52Q2.17-36.93 2.13-41.34 2.1-45.74 2.31-50.22L2.31-50.22Q6.94-51.6 11.56-52.28 16.19-52.97 21.1-52.97L21.1-52.97Q23.88-52.97 26.67-52.52 29.45-52.07 32-51.09 34.54-50.12 36.73-48.65 38.92-47.19 40.5-45.17 42.09-43.14 43.02-40.56 43.94-37.98 43.94-34.76ZM27.89-33.53L27.89-33.53Q27.89-35.88 26.47-37.2 25.04-38.52 22.76-38.52L22.76-38.52Q22-38.52 21.19-38.39 20.38-38.26 19.66-38.08L19.66-38.08 19.22-27.53Q19.73-27.46 20.2-27.46 20.67-27.46 21.17-27.46L21.17-27.46Q22.47-27.46 23.69-27.89 24.9-28.33 25.83-29.14 26.77-29.95 27.33-31.06 27.89-32.16 27.89-33.53ZM86.86-28.69L86.86-28.69Q86.86-23.63 85.56-19.57 84.26-15.5 81.93-12.34 79.6-9.18 76.38-6.9 73.17-4.63 69.34-3.16 65.51-1.7 61.19-0.99 56.87-0.29 52.32-0.29L52.32-0.29Q50.62-0.29 49-0.38 47.37-0.47 45.67-0.65L45.67-0.65 46.68-49.14Q50.66-50.41 54.87-50.93 59.08-51.45 63.23-51.45L63.23-51.45Q68.4-51.45 72.74-49.9 77.07-48.35 80.21-45.42 83.36-42.49 85.11-38.26 86.86-34.04 86.86-28.69ZM72.05-25.87L72.05-26.38Q72.08-28.33 71.63-30.13 71.18-31.94 70.15-33.33 69.12-34.72 67.53-35.57 65.94-36.42 63.74-36.49L63.74-36.49 62.29-14.09Q64.46-14.42 66.23-15.52 68-16.62 69.28-18.23 70.57-19.84 71.27-21.81 71.98-23.78 72.05-25.87L72.05-25.87Z" transform="translate(-1.9500000476837158, 52.970001220703125)"></path></g><!----><!----><!----><!----><!----><!----><!----></g></g><g data-gra="path-slogan" fill-rule="" class="tp-slogan" fill="#e9cdb3" transform="translate(8.24417495727539,57.47999954223633)"><!----><!----><g transform="scale(1, 1)"><g transform="scale(1)"><path d="M7.17-6.09L7.17-6.09L6.09-6.09Q6-7.73 3.94-7.83L3.94-7.83Q2.02-7.78 2.02-6.33L2.02-6.33Q2.02-5.39 3.05-5.25L3.05-5.25L5.48-4.69Q7.41-4.22 7.41-2.34L7.41-2.34Q7.36 0.05 4.03 0.14L4.03 0.14Q2.20 0.14 1.45-0.61L1.45-0.61Q0.52-1.31 0.56-2.77L0.56-2.77L1.69-2.77Q1.73-0.80 4.03-0.75L4.03-0.75Q6.28-0.80 6.33-2.20L6.33-2.20Q6.52-3.38 4.45-3.75L4.45-3.75L2.67-4.13Q0.84-4.64 0.84-6.19L0.84-6.19Q0.98-8.72 3.84-8.81L3.84-8.81Q7.08-8.81 7.17-6.09ZM12.86-8.58L14.03-8.58L14.03-1.03L18.39-1.03L18.39 0L12.86 0L12.86-8.58ZM30.31-4.27L30.31-4.27Q30.13-7.64 27.31-7.83L27.31-7.83Q24.45-7.69 24.31-4.27L24.31-4.27Q24.45-0.94 27.31-0.80L27.31-0.80Q30.13-0.98 30.31-4.27ZM31.48-4.27L31.48-4.27Q31.20 0 27.31 0.14L27.31 0.14Q23.38 0 23.09-4.27L23.09-4.27Q23.33-8.72 27.31-8.81L27.31-8.81Q31.20-8.67 31.48-4.27ZM43.27-3.61L40.64-3.61L40.64-4.59L44.39-4.59L44.39 0L43.64 0L43.36-1.08Q42.38 0.09 40.55 0.14L40.55 0.14Q38.81 0.14 37.88-0.75L37.88-0.75Q36.47-2.06 36.52-4.36L36.52-4.36Q36.84-8.63 40.59-8.81L40.59-8.81Q43.78-8.63 44.25-6L44.25-6L43.13-6Q42.66-7.78 40.55-7.83L40.55-7.83Q37.88-7.64 37.73-4.31L37.73-4.31Q37.73-0.75 40.59-0.75L40.59-0.75Q41.63-0.75 42.38-1.31L42.38-1.31Q43.31-2.06 43.27-3.61L43.27-3.61ZM55.84 0L55-2.48L51.53-2.48L50.64 0L49.47 0L52.70-8.58L54.02-8.58L57.11 0L55.84 0ZM53.27-7.31L51.91-3.52L54.58-3.52L53.31-7.31L53.27-7.31ZM63.55-8.58L67.86-1.64L67.86-8.58L68.98-8.58L68.98 0L67.67 0L63.31-6.94L63.27-6.94L63.27 0L62.14 0L62.14-8.58L63.55-8.58Z" transform="translate(-0.5602678571428572, 8.8125)"></path></g></g></g></g></g></g><mask id="6e26e183-e9c5-4f2e-ba82-89097dee0d3e"><g fill="white"><g><rect fill-opacity="0" stroke-width="2" x="0" y="0" width="150" height="150" class="image-rect"></rect><svg x="0" y="0" width="150" height="150" class="image-svg-svg primary" filter="url(#colorsf6755994355)" style="overflow: visible;"><svg xmlns="http://www.w3.org/2000/svg" xmlns:xlink="http://www.w3.org/1999/xlink" version="1.1" x="0px" y="0px" viewBox="5.4127607345581055 5.413749694824219 89.17325592041016 89.17325592041016" enable-background="new 0 0 100 100" xml:space="preserve"><path d="M49.29,5.704c0.391-0.387,1.029-0.387,1.42,0l4.74,4.702c0.391,0.387,1.111,0.501,1.603,0.254l5.961-3.007  c0.491-0.248,1.099-0.05,1.351,0.439l3.054,5.936c0.252,0.489,0.902,0.82,1.446,0.737l6.598-1.018  c0.544-0.083,1.061,0.292,1.148,0.834l1.071,6.59c0.088,0.542,0.604,1.059,1.147,1.147l6.59,1.071  c0.543,0.088,0.919,0.605,0.835,1.149l-1.019,6.598c-0.084,0.543,0.248,1.194,0.737,1.446l5.936,3.055  c0.489,0.251,0.687,0.859,0.439,1.351l-3.007,5.96c-0.247,0.491-0.134,1.212,0.254,1.603l4.701,4.74c0.388,0.391,0.388,1.029,0,1.42  l-4.701,4.74c-0.388,0.391-0.501,1.111-0.254,1.603l3.007,5.961c0.247,0.491,0.05,1.099-0.439,1.351l-5.936,3.054  c-0.489,0.252-0.821,0.902-0.737,1.446l1.019,6.598c0.084,0.544-0.292,1.061-0.835,1.148l-6.59,1.071  c-0.543,0.088-1.06,0.604-1.147,1.147l-1.071,6.59c-0.088,0.543-0.604,0.919-1.148,0.835l-6.598-1.019  c-0.544-0.084-1.194,0.248-1.446,0.737l-3.055,5.936c-0.251,0.489-0.858,0.688-1.35,0.439l-5.961-3.007  c-0.491-0.247-1.212-0.134-1.603,0.254l-4.74,4.701c-0.391,0.388-1.029,0.388-1.42,0l-4.74-4.701  c-0.391-0.388-1.112-0.501-1.603-0.254l-5.96,3.007c-0.491,0.248-1.099,0.05-1.351-0.439l-3.055-5.936  c-0.251-0.489-0.902-0.821-1.446-0.737l-6.598,1.019c-0.543,0.084-1.061-0.292-1.149-0.835l-1.071-6.59  c-0.088-0.543-0.605-1.06-1.147-1.147l-6.59-1.071c-0.542-0.088-0.918-0.604-0.834-1.148l1.018-6.598  c0.083-0.544-0.248-1.194-0.737-1.446l-5.936-3.054c-0.489-0.252-0.687-0.859-0.439-1.351l3.007-5.961  c0.248-0.491,0.133-1.212-0.254-1.603l-4.702-4.74c-0.387-0.391-0.387-1.029,0-1.42l4.702-4.74c0.387-0.391,0.501-1.112,0.254-1.603  l-3.007-5.96c-0.248-0.491-0.05-1.099,0.439-1.351l5.936-3.055c0.489-0.251,0.82-0.902,0.737-1.446l-1.018-6.598  c-0.083-0.543,0.292-1.061,0.834-1.149l6.59-1.071c0.542-0.088,1.059-0.605,1.147-1.147l1.071-6.59  c0.088-0.542,0.605-0.918,1.149-0.834l6.598,1.018c0.543,0.083,1.194-0.248,1.446-0.737l3.055-5.936  c0.251-0.489,0.859-0.687,1.351-0.439l5.96,3.007c0.491,0.248,1.212,0.133,1.603-0.254L49.29,5.704z"></path></svg></svg><defs></defs></g></g><g transform="translate(32.54499816894531,48.78375244140625)" fill="black"><g data-gra="path-name" fill-rule="" class="tp-name" transform="translate(0,0)"><g transform="scale(1)"><g><path d="M43.94-34.76L43.94-34.76Q43.94-31.25 42.89-28.54 41.84-25.83 40.02-23.81 38.19-21.79 35.74-20.38 33.28-18.97 30.48-18.08 27.68-17.2 24.68-16.78 21.68-16.37 18.79-16.33L18.79-16.33 18.79 0.51 1.95 0.51Q1.95-7.77 1.99-15.97 2.02-24.17 2.1-32.52L2.1-32.52Q2.17-36.93 2.13-41.34 2.1-45.74 2.31-50.22L2.31-50.22Q6.94-51.6 11.56-52.28 16.19-52.97 21.1-52.97L21.1-52.97Q23.88-52.97 26.67-52.52 29.45-52.07 32-51.09 34.54-50.12 36.73-48.65 38.92-47.19 40.5-45.17 42.09-43.14 43.02-40.56 43.94-37.98 43.94-34.76ZM27.89-33.53L27.89-33.53Q27.89-35.88 26.47-37.2 25.04-38.52 22.76-38.52L22.76-38.52Q22-38.52 21.19-38.39 20.38-38.26 19.66-38.08L19.66-38.08 19.22-27.53Q19.73-27.46 20.2-27.46 20.67-27.46 21.17-27.46L21.17-27.46Q22.47-27.46 23.69-27.89 24.9-28.33 25.83-29.14 26.77-29.95 27.33-31.06 27.89-32.16 27.89-33.53ZM86.86-28.69L86.86-28.69Q86.86-23.63 85.56-19.57 84.26-15.5 81.93-12.34 79.6-9.18 76.38-6.9 73.17-4.63 69.34-3.16 65.51-1.7 61.19-0.99 56.87-0.29 52.32-0.29L52.32-0.29Q50.62-0.29 49-0.38 47.37-0.47 45.67-0.65L45.67-0.65 46.68-49.14Q50.66-50.41 54.87-50.93 59.08-51.45 63.23-51.45L63.23-51.45Q68.4-51.45 72.74-49.9 77.07-48.35 80.21-45.42 83.36-42.49 85.11-38.26 86.86-34.04 86.86-28.69ZM72.05-25.87L72.05-26.38Q72.08-28.33 71.63-30.13 71.18-31.94 70.15-33.33 69.12-34.72 67.53-35.57 65.94-36.42 63.74-36.49L63.74-36.49 62.29-14.09Q64.46-14.42 66.23-15.52 68-16.62 69.28-18.23 70.57-19.84 71.27-21.81 71.98-23.78 72.05-25.87L72.05-25.87Z" transform="translate(-1.9500000476837158, 52.970001220703125)"></path></g></g></g></g></mask><defs></defs></svg>